<svg width="114" height="32" fill="none" xmlns="http://www.w3.org/2000/svg">
  <path fill-rule="evenodd" clip-rule="evenodd" d="m41.5 24.2.1-.2-.2-.1-.6-.2a.4.4 0 0 1-.3-.2V.2l-.1-.1-.2-.1h-.4l-6 1.8h-.2V2H34.4l.2.1v21.4l-.3.2-.7.2h-.1v.2h8ZM8.2 32c2.6 0 4.7-.5 6-1.4 1.5-1 2.2-2.2 2.2-3.8 0-.8-.2-1.5-.6-2-.3-.6-1-1-2-1.4-.9-.4-2.2-.6-3.9-.8l-2.3-.4a3 3 0 0 1-1-.4.7.7 0 0 1-.3-.5.7.7 0 0 1 .3-.6h1.6a9 9 0 0 0 3.7-.7c1.1-.5 2-1.2 2.7-2.1a4.8 4.8 0 0 0 0-5.6 6 6 0 0 0-2.4-2l-1.4-.5c0-.4.2-.6.3-.8.2-.3.5-.4.9-.4.3 0 .5.1.7.3l.7.8.7.8c.3.2.6.3 1 .3.6 0 1.2-.2 1.5-.6.4-.4.6-1 .6-1.6 0-.8-.3-1.5-.7-2-.4-.4-1.1-.7-2-.7-1 0-1.9.4-2.5 1.1-.6.7-1.1 1.5-1.5 2.6v.1h-.2l-2-.2c-1.7 0-3 .3-4.2.8-1.2.5-2.1 1.2-2.7 2.1a5 5 0 0 0-1 3c0 1 .3 1.9 1 2.7.6.8 1.5 1.4 2.6 1.9l1.8.5H6l-2.2.5c-.7.3-1.2.7-1.5 1.2-.3.4-.5 1-.5 1.5 0 .7.2 1.2.5 1.6.3.3.7.5 1.2.7-1.2.2-2 .4-2.5.8-.7.4-1 1-1 2 0 .6.3 1.2.8 1.6.5.5 1.4 1 2.6 1.2 1.2.3 2.8.4 4.8.4Zm-.5-12.2c-.3-.4-.6-1-.8-1.7a16.4 16.4 0 0 1-.8-5.6c0-.8.1-1.4.3-1.9.2-.4.5-.6.8-.7.4 0 .8.3 1.3 1.2.4.8.8 2 1 3.7.3 1.7.3 3 0 4-.1.9-.4 1.4-.9 1.5-.3 0-.6-.2-.9-.5ZM5.1 30.3c.8.9 1.9 1.3 3.3 1.3.8 0 1.4 0 1.9-.2s.9-.4 1.1-.7c.3-.3.4-.8.4-1.3s-.1-.8-.4-1.2a3 3 0 0 0-1.4-.8L7 26.8l-2.9-.6h-.1a2.5 2.5 0 0 0-.1.8c0 1.4.3 2.5 1.1 3.3Zm23.6-5.8c1 0 1.8-.2 2.3-.5.6-.3 1-.7 1.3-1.1.2-.4.4-.7.4-1l-.1-.1h-.1v.1c0 .4-.2.6-.3.7l-.5.2c-.2 0-.3 0-.4-.2L31 22v-7.9a4 4 0 0 0-1.5-3.4c-1-.8-2.6-1.2-4.6-1.2-1.5 0-2.8.2-3.8.6-1 .4-1.8 1-2.3 1.5-.5.6-.8 1.2-.8 1.8 0 .7.2 1.2.6 1.5.4.4.9.5 1.4.5 1 0 1.6-.2 2.2-.8.5-.5.8-1.1.8-1.9V11c0-.3 0-.6.3-.9.2-.2.5-.3.9-.3.3 0 .5.1.7.3.2.3.3.6.3 1V17l-.9-.2h-.2c-2.5 0-4.3.4-5.4 1.1-1 .8-1.6 1.8-1.6 3 0 1 .4 2 1.2 2.6.8.6 1.9 1 3 1a6 6 0 0 0 2.8-.6c.5-.3 1-.6 1.3-1v-.1c.1.4.3.7.7 1v.1c.6.4 1.3.6 2.5.6Zm-5.3-2.3c.2.5.6.7 1 .7h.2l.6-.3h.1v-5.4h-.8c-.5 0-.9.2-1.2.7-.2.5-.4 1.2-.4 2.3 0 1 .2 1.6.5 2Zm27.3 2h-8V24l.1-.1.6-.2c.2 0 .3 0 .3-.2V2.1h-1v-.2l.2-.1 6-1.7a12.4 12.4 0 0 1 .5-.1h.1v23.2l.2.3c0 .1.1.2.3.2l.6.2h.1v.2Zm8.3.3c1.3 0 2.5-.3 3.5-.9A6 6 0 0 0 66 18h-.1c0 1-.4 1.8-1.2 2.4-.7.6-1.7 1-2.9 1-1.4 0-2.6-.6-3.5-1.6-.6-.7-1-1.7-1.2-3v-.2h8.9v-.1l.1-.3a7 7 0 0 0-.8-3.4c-.6-1-1.3-1.8-2.4-2.4-1-.6-2.2-.9-3.6-.9-1.6 0-3 .3-4 1-1.2.5-2.1 1.4-2.8 2.6-.6 1.1-.9 2.5-.9 4s.3 2.8 1 3.9c.6 1 1.5 2 2.6 2.6 1.1.6 2.4.9 3.9.9ZM56.9 15v1.2H60c.2 0 .3 0 .3-.3a13 13 0 0 0-.6-4.6c-.4-1-.8-1.4-1.2-1.4-.3 0-.5.1-.8.4l-.6 1.6a16 16 0 0 0-.2 3Zm19 9.2h.1V24l-.1-.1-1.6-.3a.5.5 0 0 1-.3-.2L74 23v-7.3l.1-1.8c.1-.5.2-.8.4-1 .1-.2.3-.3.5-.3.3 0 .4 0 .5.2l.1.6v.6c.1.8.3 1.4.6 1.8.4.4 1 .6 1.7.6.8 0 1.5-.3 2-.8.6-.6.9-1.5.9-2.6 0-1.2-.3-2-.7-2.6-.5-.6-1.2-.9-2-.9-.7 0-1.4.2-2.1.7a5 5 0 0 0-1.6 2l-.4 1V9.8l-.2-.1h-.4L67.2 11l-.2.1v.1l.2.1h.7l.2.1v12.2l-.4.1-.5.2H67v.2h8.9ZM87.7 7.6c-.7.6-1.5 1-2.5 1s-1.7-.4-2.3-1c-.6-.6-1-1.4-1-2.3 0-.9.4-1.6 1-2.2.6-.7 1.4-1 2.3-1 1 0 1.8.3 2.5 1a3 3 0 0 1 .9 2.2 3 3 0 0 1-1 2.3Zm1.5 16.6h.2V24l-.2-.1-.6-.2a.4.4 0 0 1-.3-.2V9.7l-.1-.2H87.6l-6.1 1.7h-.1v.2h.7l.3.2v11.9l-.4.2-.6.2h-.1v.2h8Zm14.6-.2c-.6.3-1.4.5-2.4.5s-1.9-.2-2.3-.6h-.2c-.3-.4-.5-.7-.5-1.1l-.2.1c-.3.4-.8.7-1.3 1a6 6 0 0 1-2.6.6c-1.3 0-2.3-.4-3-1A3.1 3.1 0 0 1 90 21c0-1.3.5-2.3 1.6-3 1-.8 2.9-1.2 5.4-1.2h.2l.8.1V11c0-.3 0-.6-.2-.9a1 1 0 0 0-.8-.3c-.3 0-.6.1-.8.3-.2.3-.3.6-.3 1v1.6c0 .8-.3 1.4-.9 2-.5.5-1.2.7-2 .7-.7 0-1.2-.1-1.5-.5-.4-.3-.6-.8-.6-1.5 0-.6.3-1.2.8-1.8.5-.6 1.2-1 2.3-1.5 1-.4 2.2-.6 3.8-.6 2 0 3.5.4 4.6 1.2a4 4 0 0 1 1.5 3.4v8c0 .2 0 .4.2.5l.4.2c.1 0 .3 0 .4-.2.2-.1.3-.3.3-.7l.1-.1h.1v.1c0 .3-.1.6-.4 1-.2.4-.6.8-1.2 1Zm-6.6-1.1c-.4 0-.8-.2-1-.7-.4-.4-.5-1-.5-2s.1-1.8.4-2.3c.3-.5.7-.7 1.1-.7h.8v5.4c-.2.2-.5.3-.7.3Zm14.2 1.1c-.5.3-1 .5-1.7.5-.6 0-1.1-.2-1.6-.5a3.3 3.3 0 0 1-1.7-2.9 3.3 3.3 0 0 1 1.7-2.8c.5-.3 1-.5 1.6-.5a3.2 3.2 0 0 1 2.9 1.7c.3.5.4 1 .4 1.6a3.3 3.3 0 0 1-1.6 3Z" fill="#000"/>
</svg>
